<svg xmlns="http://www.w3.org/2000/svg" viewBox="0 0 800 600" width="800" height="600">
  <defs>
    <linearGradient id="wash" x1="0%" y1="0%" x2="0%" y2="100%">
      <stop offset="0%" stop-color="#2a2a2a" stop-opacity="0" />
      <stop offset="55%" stop-color="#3d3d3d" stop-opacity="0.45" />
      <stop offset="100%" stop-color="#1a1a1a" stop-opacity="0.78" />
    </linearGradient>
    <linearGradient id="hill" x1="0%" y1="0%" x2="100%" y2="0%">
      <stop offset="0%" stop-color="#4a4a4a" stop-opacity="0.2" />
      <stop offset="100%" stop-color="#2c2c2c" stop-opacity="0.65" />
    </linearGradient>
  </defs>
  <!-- distant hills -->
  <path fill="url(#hill)" d="M0 420 Q120 380 220 400 T440 390 T640 410 T800 400 L800 600 L0 600 Z" opacity="0.85" />
  <path fill="#333" opacity="0.35" d="M0 450 Q200 420 360 440 T600 430 T800 445 L800 600 L0 600 Z" />
  <!-- foreground mound -->
  <path fill="url(#wash)" d="M0 520 Q140 480 280 500 T520 490 T800 510 L800 600 L0 600 Z" />
  <!-- rocks -->
  <ellipse cx="720" cy="540" rx="45" ry="22" fill="#222" opacity="0.75" />
  <ellipse cx="680" cy="555" rx="32" ry="16" fill="#1a1a1a" opacity="0.8" />
  <!-- bamboo stalks (right) -->
  <g stroke="#1f1f1f" stroke-width="3" fill="none" stroke-linecap="round" opacity="0.88">
    <path d="M620 600 Q625 480 618 320" />
    <path d="M655 600 Q658 420 650 280" />
    <path d="M688 600 Q682 450 692 300" />
    <path d="M722 600 Q730 400 715 340" />
  </g>
  <g stroke="#2a2a2a" stroke-width="1.5" fill="none" opacity="0.7">
    <path d="M618 380 Q640 370 655 375" />
    <path d="M650 340 Q672 328 688 335" />
    <path d="M688 400 Q705 388 720 395" />
    <path d="M712 450 Q725 438 738 445" />
  </g>
</svg>
